<svg width="40" height="40" viewBox="0 0 40 40" fill="none" xmlns="http://www.w3.org/2000/svg">
<rect x="0.5" y="0.5" width="39" height="39" rx="3.5" stroke="black"/>
<path d="M31.9739 26.1095C31.8834 26.6552 30.3153 29.3305 29.5425 30.6L17.386 9C18.7618 9 21.6266 9.01137 22.079 9.05684C22.5313 9.10232 23.0967 9.56842 23.3229 9.79579L31.8042 24.6884C31.8985 24.9347 32.0643 25.5638 31.9739 26.1095Z" stroke="#292929" stroke-width="1.5"/>
<path d="M20.6654 22.1874L15.2374 12.9221L9.80935 22.1874H20.6654Z" stroke="#292929" stroke-width="1.5"/>
<path d="M23.1533 25.4842H8C8.60312 26.5074 9.89981 28.7015 10.2617 29.2926C10.6236 29.8838 11.4679 30.1832 11.8449 30.2589H25.9238L23.1533 25.4842Z" stroke="#292929" stroke-width="1.5"/>
</svg>
