<svg width="40" height="40" viewBox="0 0 40 40" fill="none" xmlns="http://www.w3.org/2000/svg">
<rect x="0.5" y="0.5" width="39" height="39" rx="3.5" stroke="black"/>
<path d="M13.5135 15.0309H8.55597V31H13.5135V15.0309Z" stroke="#292929" stroke-width="1.5"/>
<path d="M21.3899 15.0309H16.6641V31H21.4363V21.762C21.4363 19.6824 23.0733 19.1005 23.8919 19.0696H24.8185C26.4123 19.0696 26.9961 20.8646 27.0888 21.762V31H32V20.2765C32 16.0058 28.6332 14.6595 26.9498 14.5203H25.5135C23.4378 14.5203 22.1107 16.3513 21.3899 17.0735V15.0309Z" stroke="#292929" stroke-width="1.5"/>
<path d="M13.1805 9.97099C13.1805 11.199 12.1873 12.192 10.9653 12.192C9.74317 12.192 8.75 11.199 8.75 9.97099C8.75 8.743 9.74317 7.75 10.9653 7.75C12.1873 7.75 13.1805 8.743 13.1805 9.97099Z" stroke="#292929" stroke-width="1.5"/>
</svg>
